<svg width="48" height="32" viewBox="0 0 48 32" fill="none" xmlns="http://www.w3.org/2000/svg">
<g id="discover-color-large">
<rect id="card_bg" width="48" height="32" rx="4" fill="white"/>
<path id="card_bg-2" fill-rule="evenodd" clip-rule="evenodd" d="M4 0H44C46.2091 0 48 1.79086 48 4V28C48 30.2091 46.2091 32 44 32H4C1.79086 32 0 30.2091 0 28V4C0 1.79086 1.79086 0 4 0ZM46 4C46 2.89543 45.1046 2 44 2H4C2.89543 2 2 2.89543 2 4V28C2 29.1046 2.89543 30 4 30H44C45.1046 30 46 29.1046 46 28V4Z" fill="#231F20"/>
<g id="discover">
<path id="Path" d="M45.9999 17.7202V28.0002C45.9999 29.1048 45.1045 30.0002 43.9999 30.0002H11.9199C33.9999 26.2202 45.9999 17.7202 45.9999 17.7202Z" fill="#EE7623"/>
<path id="Shape" fill-rule="evenodd" clip-rule="evenodd" d="M4 10.64H5.83C6.72346 10.5635 7.60751 10.869 8.26313 11.4808C8.91875 12.0925 9.28458 12.9534 9.27 13.85C9.26809 14.7994 8.84726 15.6996 8.12 16.31C7.47109 16.8251 6.65765 17.088 5.83 17.05H4V10.64ZM5.58 16C6.20073 16.0537 6.81698 15.8555 7.29 15.45C7.74494 15.0346 8.00287 14.446 8 13.83C8.00098 13.2201 7.74289 12.6385 7.29 12.23C6.81074 11.8382 6.19624 11.6513 5.58 11.71H5.25V16H5.58Z" fill="#231F20"/>
<rect id="Rectangle" x="9.84961" y="10.6299" width="1.25" height="6.42" fill="#231F20"/>
<path id="Path_2" d="M14.1695 13.09C13.4195 12.82 13.1695 12.63 13.1695 12.29C13.1695 11.95 13.5595 11.57 14.0995 11.57C14.4935 11.5865 14.8598 11.777 15.0995 12.09L15.7495 11.24C15.2364 10.771 14.5647 10.5137 13.8695 10.52C13.3574 10.4871 12.854 10.6651 12.4763 11.0126C12.0986 11.3601 11.8794 11.8468 11.8695 12.36C11.8695 13.25 12.2695 13.7 13.4395 14.12C13.7403 14.2163 14.0315 14.3402 14.3095 14.49C14.5452 14.6261 14.6902 14.8778 14.6895 15.15C14.6877 15.4067 14.5787 15.6511 14.3888 15.8239C14.1988 15.9967 13.9453 16.0823 13.6895 16.06C13.1063 16.0663 12.5738 15.7296 12.3295 15.2L11.5195 15.98C11.9922 16.7803 12.8714 17.2508 13.7995 17.2C14.3767 17.2394 14.9439 17.0344 15.3624 16.6349C15.7809 16.2354 16.0121 15.6784 15.9995 15.1C15.9995 14.08 15.5895 13.61 14.1695 13.09Z" fill="#231F20"/>
<path id="Path_3" d="M16.4103 13.8402C16.402 14.7382 16.7578 15.6012 17.3965 16.2324C18.0353 16.8637 18.9025 17.2092 19.8003 17.1902C20.3456 17.1934 20.8838 17.0666 21.3703 16.8202V15.3502C20.9926 15.7918 20.4414 16.0473 19.8603 16.0502C19.2725 16.065 18.7052 15.8337 18.2951 15.4123C17.885 14.9909 17.6695 14.4174 17.7003 13.8302C17.6814 13.2584 17.8934 12.7031 18.2884 12.2893C18.6834 11.8755 19.2283 11.638 19.8003 11.6302C20.403 11.6326 20.9753 11.8951 21.3703 12.3502V10.8802C20.899 10.619 20.3692 10.4813 19.8303 10.4802C18.9304 10.4696 18.0634 10.8182 17.4215 11.4489C16.7795 12.0796 16.4156 12.9403 16.4103 13.8402Z" fill="#231F20"/>
<path id="Path_4" d="M31.3007 14.9399L29.5807 10.6299H28.2207L30.9407 17.2099H31.6107L34.3907 10.6299H33.0307L31.3007 14.9399Z" fill="#231F20"/>
<path id="Path_5" d="M34.9492 17.0499H38.5092V15.9599H36.1992V14.2299H38.4192V13.1399H36.1992V11.7199H38.5092V10.6299H34.9492V17.0499Z" fill="#231F20"/>
<path id="Shape_2" fill-rule="evenodd" clip-rule="evenodd" d="M43.4598 12.5201C43.5274 13.4183 42.8906 14.2165 41.9998 14.3501L43.9998 17.0501H42.4798L40.7398 14.4701H40.5898V17.0501H39.3398V10.6401H41.1898C42.6298 10.6401 43.4598 11.3301 43.4598 12.5201ZM40.6298 13.5801H40.9998C41.7498 13.5801 42.1898 13.3201 42.1898 12.6401C42.1898 11.9601 41.7698 11.6401 40.9998 11.6401H40.6298V13.5801Z" fill="#231F20"/>
<path id="Path_6" d="M28.5895 13.8402C28.5895 15.7235 27.0628 17.2502 25.1795 17.2502C23.2962 17.2502 21.7695 15.7235 21.7695 13.8402C21.7695 11.9569 23.2962 10.4302 25.1795 10.4302C27.0605 10.4357 28.584 11.9592 28.5895 13.8402Z" fill="#EE7623"/>
<path id="Shape_3" fill-rule="evenodd" clip-rule="evenodd" d="M44.1109 10.7501C44.1184 10.8232 44.0718 10.8909 44.0009 10.9101L44.1709 11.1601H44.0209L43.8409 10.9201V11.1601H43.7109V10.5801H43.9009C44.0409 10.5801 44.1109 10.6401 44.1109 10.7501ZM43.8809 10.6901V10.8301H43.9009C43.9851 10.8301 43.9843 10.8159 43.9819 10.7757C43.9814 10.7681 43.9809 10.7596 43.9809 10.7501C43.9809 10.6901 43.9409 10.6901 43.8809 10.6901Z" fill="#231F20"/>
<path id="Shape_4" fill-rule="evenodd" clip-rule="evenodd" d="M43.5955 10.5206C43.6855 10.4269 43.8091 10.3727 43.9391 10.3701C44.0759 10.3616 44.21 10.4109 44.3088 10.5059C44.4077 10.6009 44.4621 10.733 44.4591 10.8701C44.4591 11.1462 44.2352 11.3701 43.9591 11.3701C43.6829 11.3701 43.4591 11.1462 43.4591 10.8701C43.4564 10.7401 43.5055 10.6144 43.5955 10.5206ZM43.9391 11.2701C44.0344 11.2712 44.1256 11.2311 44.1891 11.1601C44.2727 11.087 44.3202 10.9811 44.3191 10.8701C44.3245 10.7649 44.2872 10.6621 44.2156 10.5848C44.1441 10.5076 44.0443 10.4626 43.9391 10.4601C43.833 10.4627 43.7323 10.5074 43.6591 10.5843C43.586 10.6612 43.5464 10.764 43.5491 10.8701C43.5464 10.9752 43.5863 11.077 43.6597 11.1523C43.7332 11.2276 43.8339 11.2701 43.9391 11.2701Z" fill="#231F20"/>
</g>
</g>
</svg>
