<svg width="48" height="32" viewBox="0 0 48 32" fill="none" xmlns="http://www.w3.org/2000/svg">
<g id="jcb-color-large">
<rect id="card_bg" width="48" height="32" rx="4" fill="white"/>
<g id="jcb-logo">
<path id="Path" d="M32.0996 18.57H34.4096H34.6896C35.1667 18.4778 35.5084 18.0559 35.4996 17.57C35.4826 17.0934 35.1523 16.6856 34.6896 16.57C34.5966 16.5593 34.5026 16.5593 34.4096 16.57H32.0996V18.57Z" fill="#40A648"/>
<path id="Path_2" d="M34.1391 4C31.93 4 30.1391 5.79086 30.1391 8V12.15H35.7891C35.922 12.1344 36.0563 12.1344 36.1891 12.15C37.4591 12.21 38.4091 12.87 38.4091 14.01C38.3829 15.0096 37.5787 15.8138 36.5791 15.84C37.8791 15.93 38.8691 16.65 38.8691 17.78C38.8691 18.91 37.7691 19.78 36.3191 19.78H30.1191V28H35.9991C38.2083 28 39.9991 26.2091 39.9991 24V4H34.1391Z" fill="#40A648"/>
<path id="Path_3" d="M35.2196 14.3101C35.2559 13.8152 34.9012 13.3774 34.4096 13.3101H34.1896H32.0996V15.2401H34.1896C34.2625 15.2513 34.3367 15.2513 34.4096 15.2401C34.8797 15.179 35.2287 14.774 35.2196 14.3001V14.3101Z" fill="#40A648"/>
<path id="Path_4" d="M12 4C9.79086 4 8 5.79086 8 8V17.87C9.06652 18.4287 10.2465 18.7365 11.45 18.77C12.0104 18.8353 12.5711 18.6509 12.9832 18.2657C13.3954 17.8805 13.6173 17.3335 13.59 16.77V12.13H17V16.77C17 18.57 15.88 20.04 12.08 20.04C10.7048 20.039 9.33477 19.8711 8 19.54V28H13.87C16.0791 28 17.87 26.2091 17.87 24V4H12Z" fill="#0D67B0"/>
<path id="Path_5" d="M23.0898 4C20.8807 4 19.0898 5.79086 19.0898 8V13.23C20.0898 12.37 21.8598 11.82 24.6898 11.96C25.749 12.0232 26.8001 12.1839 27.8298 12.44V14.13C26.9017 13.6317 25.8801 13.332 24.8298 13.25C22.6798 13.1 21.3798 14.15 21.3798 16C21.3798 17.85 22.6798 18.92 24.8298 18.75C25.8775 18.6543 26.8965 18.3554 27.8298 17.87V19.56C26.8006 19.8182 25.7493 19.9789 24.6898 20.04C21.8598 20.18 20.0998 19.63 19.0898 18.77V28H24.9998C27.209 28 28.9998 26.2091 28.9998 24V4H23.0898Z" fill="#BE2034"/>
</g>
</g>
</svg>
